<mxfile host="app.diagrams.net" modified="2023-09-11T14:49:01.573Z" agent="Mozilla/5.0 (Macintosh; Intel Mac OS X 10_15_7) AppleWebKit/537.36 (KHTML, like Gecko) Chrome/116.0.0.0 Safari/537.36" etag="zuYYY_NZCFQjaVLPJczg" version="21.7.1" type="github">
  <diagram name="Page-1" id="4yN_IOcFB8aDGgdcJtbf">
    <mxGraphModel dx="954" dy="610" grid="1" gridSize="10" guides="1" tooltips="1" connect="1" arrows="1" fold="1" page="1" pageScale="1" pageWidth="827" pageHeight="1169" math="0" shadow="0">
      <root>
        <mxCell id="0" />
        <mxCell id="1" parent="0" />
        <mxCell id="-EtCMIh2DeuoLbIEvu5n-9" style="edgeStyle=orthogonalEdgeStyle;rounded=0;orthogonalLoop=1;jettySize=auto;html=1;exitX=0.5;exitY=0.5;exitDx=0;exitDy=0;exitPerimeter=0;" edge="1" parent="1" source="-EtCMIh2DeuoLbIEvu5n-1">
          <mxGeometry relative="1" as="geometry">
            <mxPoint x="230" y="195" as="targetPoint" />
          </mxGeometry>
        </mxCell>
        <mxCell id="-EtCMIh2DeuoLbIEvu5n-1" value="Actor" style="shape=umlActor;verticalLabelPosition=bottom;verticalAlign=top;html=1;outlineConnect=0;" vertex="1" parent="1">
          <mxGeometry x="80" y="160" width="40" height="70" as="geometry" />
        </mxCell>
        <mxCell id="-EtCMIh2DeuoLbIEvu5n-5" value="" style="edgeStyle=orthogonalEdgeStyle;rounded=0;orthogonalLoop=1;jettySize=auto;html=1;" edge="1" parent="1" source="-EtCMIh2DeuoLbIEvu5n-2" target="-EtCMIh2DeuoLbIEvu5n-3">
          <mxGeometry relative="1" as="geometry" />
        </mxCell>
        <mxCell id="-EtCMIh2DeuoLbIEvu5n-8" value="" style="edgeStyle=orthogonalEdgeStyle;rounded=0;orthogonalLoop=1;jettySize=auto;html=1;" edge="1" parent="1" source="-EtCMIh2DeuoLbIEvu5n-2" target="-EtCMIh2DeuoLbIEvu5n-7">
          <mxGeometry relative="1" as="geometry" />
        </mxCell>
        <mxCell id="-EtCMIh2DeuoLbIEvu5n-12" style="edgeStyle=orthogonalEdgeStyle;rounded=0;orthogonalLoop=1;jettySize=auto;html=1;exitX=1;exitY=0.5;exitDx=0;exitDy=0;entryX=0;entryY=0;entryDx=0;entryDy=52.5;entryPerimeter=0;" edge="1" parent="1" source="-EtCMIh2DeuoLbIEvu5n-2" target="-EtCMIh2DeuoLbIEvu5n-4">
          <mxGeometry relative="1" as="geometry" />
        </mxCell>
        <mxCell id="-EtCMIh2DeuoLbIEvu5n-2" value="App Server" style="rounded=0;whiteSpace=wrap;html=1;" vertex="1" parent="1">
          <mxGeometry x="180" y="160" width="140" height="70" as="geometry" />
        </mxCell>
        <mxCell id="-EtCMIh2DeuoLbIEvu5n-13" value="" style="edgeStyle=orthogonalEdgeStyle;rounded=0;orthogonalLoop=1;jettySize=auto;html=1;" edge="1" parent="1" source="-EtCMIh2DeuoLbIEvu5n-3" target="-EtCMIh2DeuoLbIEvu5n-10">
          <mxGeometry relative="1" as="geometry" />
        </mxCell>
        <mxCell id="-EtCMIh2DeuoLbIEvu5n-3" value="Object Storage&lt;br&gt;(RAW)" style="shape=cylinder3;whiteSpace=wrap;html=1;boundedLbl=1;backgroundOutline=1;size=15;" vertex="1" parent="1">
          <mxGeometry x="390" y="130" width="80" height="80" as="geometry" />
        </mxCell>
        <mxCell id="-EtCMIh2DeuoLbIEvu5n-4" value="No SQL DB (Metadata)" style="shape=cylinder3;whiteSpace=wrap;html=1;boundedLbl=1;backgroundOutline=1;size=15;" vertex="1" parent="1">
          <mxGeometry x="360" y="290" width="80" height="80" as="geometry" />
        </mxCell>
        <mxCell id="-EtCMIh2DeuoLbIEvu5n-7" value="LRU Cache" style="rounded=0;whiteSpace=wrap;html=1;" vertex="1" parent="1">
          <mxGeometry x="190" y="300" width="120" height="60" as="geometry" />
        </mxCell>
        <mxCell id="-EtCMIh2DeuoLbIEvu5n-15" value="" style="edgeStyle=orthogonalEdgeStyle;rounded=0;orthogonalLoop=1;jettySize=auto;html=1;" edge="1" parent="1" source="-EtCMIh2DeuoLbIEvu5n-10" target="-EtCMIh2DeuoLbIEvu5n-14">
          <mxGeometry relative="1" as="geometry" />
        </mxCell>
        <mxCell id="-EtCMIh2DeuoLbIEvu5n-10" value="Queue" style="strokeWidth=2;html=1;shape=mxgraph.flowchart.direct_data;whiteSpace=wrap;" vertex="1" parent="1">
          <mxGeometry x="540" y="160" width="100" height="40" as="geometry" />
        </mxCell>
        <mxCell id="-EtCMIh2DeuoLbIEvu5n-17" value="" style="edgeStyle=orthogonalEdgeStyle;rounded=0;orthogonalLoop=1;jettySize=auto;html=1;" edge="1" parent="1" source="-EtCMIh2DeuoLbIEvu5n-14" target="-EtCMIh2DeuoLbIEvu5n-16">
          <mxGeometry relative="1" as="geometry" />
        </mxCell>
        <mxCell id="-EtCMIh2DeuoLbIEvu5n-14" value="Encoding Service" style="rounded=0;whiteSpace=wrap;html=1;" vertex="1" parent="1">
          <mxGeometry x="700" y="140" width="120" height="60" as="geometry" />
        </mxCell>
        <mxCell id="-EtCMIh2DeuoLbIEvu5n-19" style="edgeStyle=orthogonalEdgeStyle;rounded=0;orthogonalLoop=1;jettySize=auto;html=1;exitX=0.5;exitY=1;exitDx=0;exitDy=0;exitPerimeter=0;entryX=1;entryY=0.5;entryDx=0;entryDy=0;" edge="1" parent="1" source="-EtCMIh2DeuoLbIEvu5n-16" target="-EtCMIh2DeuoLbIEvu5n-18">
          <mxGeometry relative="1" as="geometry" />
        </mxCell>
        <mxCell id="-EtCMIh2DeuoLbIEvu5n-16" value="Object Storage&lt;br&gt;(Encoded)" style="shape=cylinder3;whiteSpace=wrap;html=1;boundedLbl=1;backgroundOutline=1;size=15;" vertex="1" parent="1">
          <mxGeometry x="700" y="260" width="100" height="80" as="geometry" />
        </mxCell>
        <mxCell id="-EtCMIh2DeuoLbIEvu5n-18" value="CDN" style="rounded=1;whiteSpace=wrap;html=1;" vertex="1" parent="1">
          <mxGeometry x="50" y="460" width="120" height="60" as="geometry" />
        </mxCell>
      </root>
    </mxGraphModel>
  </diagram>
</mxfile>
